<svg class="wcb-transition-all wcb-duration-150" xmlns="http://www.w3.org/2000/svg" width="32" height="32" viewBox="0 0 32 32" fill="none">
  <path d="M23.8232 11.8214L23.8232 11.8213L23.4696 11.4678C23.4696 11.4677 23.4696 11.4677 23.4696 11.4677C23.372 11.3701 23.2137 11.3701 23.1161 11.4678C23.1161 11.4678 23.1161 11.4678 23.1161 11.4678L16.3535 18.2304L16 18.5839L15.6464 18.2304L8.88382 11.4678C8.78618 11.3701 8.62797 11.3701 8.53033 11.4678L8.17673 11.8214C8.07909 11.919 8.07909 12.0772 8.17673 12.1749L15.8232 19.8214C15.9209 19.919 16.0791 19.919 16.1767 19.8214L23.8232 12.1749C23.8232 12.1749 23.8232 12.1749 23.8232 12.1749C23.9208 12.0772 23.9208 11.919 23.8232 11.8214Z" fill="black" stroke="black"/>
</svg>